<mxfile host="65bd71144e">
    <diagram name="Page-1" id="_Soq1kPu1i2np-Kl541S">
        <mxGraphModel dx="389" dy="559" grid="1" gridSize="10" guides="1" tooltips="1" connect="1" arrows="1" fold="1" page="1" pageScale="1" pageWidth="850" pageHeight="1100" background="none" math="0" shadow="0" adaptiveColors="simple">
            <root>
                <mxCell id="0"/>
                <mxCell id="1" parent="0"/>
                <mxCell id="2" value="Input" style="rounded=0;whiteSpace=wrap;html=1;" parent="1" vertex="1">
                    <mxGeometry x="190" y="180" width="280" height="40" as="geometry"/>
                </mxCell>
                <mxCell id="3" value="1" style="ellipse;whiteSpace=wrap;html=1;aspect=fixed;fillColor=#006600;rounded=0;" parent="1" vertex="1">
                    <mxGeometry x="190" y="120" width="40" height="40" as="geometry"/>
                </mxCell>
                <mxCell id="4" value="2" style="ellipse;whiteSpace=wrap;html=1;aspect=fixed;shadow=0;fillColor=light-dark(#FFFFFF,#FFB366);rounded=0;" parent="1" vertex="1">
                    <mxGeometry x="270" y="120" width="40" height="40" as="geometry"/>
                </mxCell>
                <mxCell id="5" value="3" style="ellipse;whiteSpace=wrap;html=1;aspect=fixed;fillColor=light-dark(#FFFFFF,#FFB366);shadow=0;rounded=0;" parent="1" vertex="1">
                    <mxGeometry x="350" y="120" width="40" height="40" as="geometry"/>
                </mxCell>
                <mxCell id="6" value="" style="shape=flexArrow;endArrow=classic;html=1;rounded=0;fillColor=#000000;" parent="1" edge="1">
                    <mxGeometry width="50" height="50" relative="1" as="geometry">
                        <mxPoint x="329.66" y="260" as="sourcePoint"/>
                        <mxPoint x="329.66" y="330" as="targetPoint"/>
                    </mxGeometry>
                </mxCell>
                <mxCell id="7" style="edgeStyle=orthogonalEdgeStyle;rounded=0;orthogonalLoop=1;jettySize=auto;html=1;exitX=1;exitY=0.5;exitDx=0;exitDy=0;entryX=0;entryY=0.5;entryDx=0;entryDy=0;" parent="1" source="8" target="10" edge="1">
                    <mxGeometry relative="1" as="geometry">
                        <mxPoint x="280" y="509.9999999999999" as="targetPoint"/>
                    </mxGeometry>
                </mxCell>
                <mxCell id="8" value="fork 1" style="rounded=0;whiteSpace=wrap;html=1;" parent="1" vertex="1">
                    <mxGeometry x="100" y="490" width="120" height="40" as="geometry"/>
                </mxCell>
                <mxCell id="9" style="edgeStyle=orthogonalEdgeStyle;rounded=0;orthogonalLoop=1;jettySize=auto;html=1;" parent="1" source="10" target="13" edge="1">
                    <mxGeometry relative="1" as="geometry">
                        <mxPoint x="372" y="509.9999999999999" as="sourcePoint"/>
                    </mxGeometry>
                </mxCell>
                <mxCell id="10" value="2" style="ellipse;whiteSpace=wrap;html=1;aspect=fixed;shadow=0;fillColor=light-dark(#FFFFFF,#FFB366);rounded=0;" parent="1" vertex="1">
                    <mxGeometry x="310" y="490" width="40" height="40" as="geometry"/>
                </mxCell>
                <mxCell id="11" style="edgeStyle=orthogonalEdgeStyle;rounded=0;orthogonalLoop=1;jettySize=auto;html=1;entryX=0;entryY=0.5;entryDx=0;entryDy=0;" parent="1" source="12" target="26" edge="1">
                    <mxGeometry relative="1" as="geometry"/>
                </mxCell>
                <mxCell id="12" value="3" style="ellipse;whiteSpace=wrap;html=1;aspect=fixed;shadow=0;fillColor=light-dark(#FFFFFF,#FFB366);rounded=0;" parent="1" vertex="1">
                    <mxGeometry x="310" y="640" width="40" height="40" as="geometry"/>
                </mxCell>
                <mxCell id="13" value="pipe [1]" style="shape=step;perimeter=stepPerimeter;whiteSpace=wrap;html=1;fixedSize=1;rounded=0;fillColor=#333300;" parent="1" vertex="1">
                    <mxGeometry x="382" y="490" width="100" height="40" as="geometry"/>
                </mxCell>
                <mxCell id="14" style="edgeStyle=orthogonalEdgeStyle;rounded=0;orthogonalLoop=1;jettySize=auto;html=1;entryX=0.5;entryY=0;entryDx=0;entryDy=0;" parent="1" source="15" target="10" edge="1">
                    <mxGeometry relative="1" as="geometry"/>
                </mxCell>
                <mxCell id="15" value="1" style="ellipse;whiteSpace=wrap;html=1;aspect=fixed;fillColor=#006600;rounded=0;" parent="1" vertex="1">
                    <mxGeometry x="310" y="430" width="40" height="40" as="geometry"/>
                </mxCell>
                <mxCell id="16" style="edgeStyle=orthogonalEdgeStyle;rounded=0;orthogonalLoop=1;jettySize=auto;html=1;" parent="1" source="17" target="12" edge="1">
                    <mxGeometry relative="1" as="geometry"/>
                </mxCell>
                <mxCell id="17" value="pipe [0]" style="shape=step;perimeter=stepPerimeter;whiteSpace=wrap;html=1;fixedSize=1;rounded=0;fillColor=#333300;" parent="1" vertex="1">
                    <mxGeometry x="280" y="570" width="100" height="40" as="geometry"/>
                </mxCell>
                <mxCell id="18" value="pipe" style="shape=step;perimeter=stepPerimeter;whiteSpace=wrap;html=1;fixedSize=1;rounded=0;fillColor=#333300;" parent="1" vertex="1">
                    <mxGeometry x="100" y="350" width="100" height="40" as="geometry"/>
                </mxCell>
                <mxCell id="19" value="main" style="text;strokeColor=none;align=center;fillColor=none;html=1;verticalAlign=middle;whiteSpace=wrap;rounded=0;" parent="1" vertex="1">
                    <mxGeometry x="198" y="635" width="60" height="30" as="geometry"/>
                </mxCell>
                <mxCell id="20" value="child" style="text;strokeColor=none;align=center;fillColor=none;html=1;verticalAlign=middle;whiteSpace=wrap;rounded=0;" parent="1" vertex="1">
                    <mxGeometry x="240" y="488" width="38" height="24" as="geometry"/>
                </mxCell>
                <mxCell id="21" value="return" style="ellipse;whiteSpace=wrap;html=1;strokeWidth=2;fillWeight=2;hachureGap=8;fillColor=#007FFF;fillStyle=dots;sketch=1;" parent="1" vertex="1">
                    <mxGeometry x="603" y="485" width="50" height="50" as="geometry"/>
                </mxCell>
                <mxCell id="22" value="return" style="ellipse;whiteSpace=wrap;html=1;strokeWidth=2;fillWeight=2;hachureGap=8;fillColor=#007FFF;fillStyle=dots;sketch=1;" parent="1" vertex="1">
                    <mxGeometry x="602" y="636" width="50" height="50" as="geometry"/>
                </mxCell>
                <mxCell id="23" value="" style="shape=flexArrow;endArrow=classic;html=1;rounded=0;fillColor=#000000;" parent="1" edge="1">
                    <mxGeometry width="50" height="50" relative="1" as="geometry">
                        <mxPoint x="507" y="510" as="sourcePoint"/>
                        <mxPoint x="577" y="510" as="targetPoint"/>
                    </mxGeometry>
                </mxCell>
                <mxCell id="24" value="" style="shape=flexArrow;endArrow=classic;html=1;rounded=0;fillColor=#000000;" parent="1" edge="1">
                    <mxGeometry width="50" height="50" relative="1" as="geometry">
                        <mxPoint x="507" y="660" as="sourcePoint"/>
                        <mxPoint x="577" y="660" as="targetPoint"/>
                    </mxGeometry>
                </mxCell>
                <mxCell id="25" value="4" style="ellipse;whiteSpace=wrap;html=1;aspect=fixed;fillColor=#003333;rounded=0;" parent="1" vertex="1">
                    <mxGeometry x="430" y="120" width="40" height="40" as="geometry"/>
                </mxCell>
                <mxCell id="26" value="4" style="ellipse;whiteSpace=wrap;html=1;aspect=fixed;fillColor=#003333;rounded=0;" parent="1" vertex="1">
                    <mxGeometry x="390" y="640" width="40" height="40" as="geometry"/>
                </mxCell>
                <mxCell id="27" value="" style="endArrow=classic;html=1;entryX=0;entryY=0.5;entryDx=0;entryDy=0;exitX=0.5;exitY=1;exitDx=0;exitDy=0;" parent="1" source="8" target="12" edge="1">
                    <mxGeometry relative="1" as="geometry">
                        <mxPoint x="134" y="660.44" as="sourcePoint"/>
                        <mxPoint x="234" y="660.44" as="targetPoint"/>
                        <Array as="points">
                            <mxPoint x="160" y="660"/>
                        </Array>
                    </mxGeometry>
                </mxCell>
                <mxCell id="28" value="wait" style="edgeLabel;resizable=0;html=1;;align=center;verticalAlign=middle;" parent="27" connectable="0" vertex="1">
                    <mxGeometry relative="1" as="geometry">
                        <mxPoint x="-10" y="-70" as="offset"/>
                    </mxGeometry>
                </mxCell>
            </root>
        </mxGraphModel>
    </diagram>
    <diagram id="sjgSYvKbjNSkeXdrZGYg" name="Page-2">
        <mxGraphModel dx="601" dy="559" grid="1" gridSize="10" guides="1" tooltips="1" connect="1" arrows="1" fold="1" page="1" pageScale="1" pageWidth="850" pageHeight="1100" math="0" shadow="0">
            <root>
                <mxCell id="0"/>
                <mxCell id="1" parent="0"/>
                <mxCell id="vmS_fidFhePXiJyu6rag-3" style="edgeStyle=none;html=1;exitX=0.5;exitY=1;exitDx=0;exitDy=0;entryX=0;entryY=0.5;entryDx=0;entryDy=0;" parent="1" source="vmS_fidFhePXiJyu6rag-1" target="vmS_fidFhePXiJyu6rag-2" edge="1">
                    <mxGeometry relative="1" as="geometry">
                        <Array as="points">
                            <mxPoint x="140" y="215"/>
                        </Array>
                    </mxGeometry>
                </mxCell>
                <mxCell id="vmS_fidFhePXiJyu6rag-5" style="edgeStyle=none;html=1;entryX=0;entryY=0.5;entryDx=0;entryDy=0;" parent="1" source="vmS_fidFhePXiJyu6rag-1" target="vmS_fidFhePXiJyu6rag-4" edge="1">
                    <mxGeometry relative="1" as="geometry">
                        <Array as="points">
                            <mxPoint x="140" y="285"/>
                        </Array>
                    </mxGeometry>
                </mxCell>
                <mxCell id="vmS_fidFhePXiJyu6rag-1" value="4 arguments&lt;br&gt;only" style="ellipse;whiteSpace=wrap;html=1;fillColor=light-dark(#FFFFFF,#4D9900);" parent="1" vertex="1">
                    <mxGeometry x="80" y="120" width="120" height="50" as="geometry"/>
                </mxCell>
                <mxCell id="vmS_fidFhePXiJyu6rag-2" value="commands not fail" style="ellipse;whiteSpace=wrap;html=1;" parent="1" vertex="1">
                    <mxGeometry x="190" y="190" width="120" height="50" as="geometry"/>
                </mxCell>
                <mxCell id="vmS_fidFhePXiJyu6rag-4" value="files are there" style="ellipse;whiteSpace=wrap;html=1;" parent="1" vertex="1">
                    <mxGeometry x="190" y="260" width="120" height="50" as="geometry"/>
                </mxCell>
                <mxCell id="vmS_fidFhePXiJyu6rag-6" value="no such file or directory: file1&#xa;maybe perror?" style="text;whiteSpace=wrap;" parent="1" vertex="1">
                    <mxGeometry x="341" y="275" width="160" height="45" as="geometry"/>
                </mxCell>
                <mxCell id="TQKoXtDEUJFK85BCvjtD-6" value="if exec fails &amp;gt; free memory array" style="shape=display;whiteSpace=wrap;html=1;fillColor=light-dark(#FFFFFF,#333300);" vertex="1" parent="1">
                    <mxGeometry x="110" y="370" width="260" height="40" as="geometry"/>
                </mxCell>
            </root>
        </mxGraphModel>
    </diagram>
</mxfile>